<?xml version="1.0" standalone="no"?>
<!DOCTYPE svg PUBLIC "-//W3C//DTD SVG 20010904//EN"
 "http://www.w3.org/TR/2001/REC-SVG-20010904/DTD/svg10.dtd">
<svg version="1.0" xmlns="http://www.w3.org/2000/svg"
 width="700.000000pt" height="700.000000pt" viewBox="0 0 700.000000 700.000000"
 preserveAspectRatio="xMidYMid meet">
<metadata>
Created by potrace 1.11, written by Peter Selinger 2001-2013
</metadata>
<g transform="translate(0.000000,700.000000) scale(0.100000,-0.100000)"
fill="#000000" stroke="none">
<path d="M521 6633 c-61 -22 -133 -96 -154 -158 -16 -45 -17 -269 -17 -2970 0
-3293 -8 -2988 80 -3075 87 -88 -217 -80 3070 -80 3228 0 2975 -5 3058 66 23
20 52 57 65 82 l22 47 2 2946 3 2946 -21 49 c-12 27 -41 68 -64 90 -85 81 213
74 -3069 73 -2636 0 -2935 -2 -2975 -16z"/>
</g>
</svg>
